<?xml version="1.0" encoding="utf-8"?>
<!-- Generator: Adobe Illustrator 14.0.0, SVG Export Plug-In . SVG Version: 6.00 Build 43363)  -->
<!DOCTYPE svg PUBLIC "-//W3C//DTD SVG 1.1//EN" "http://www.w3.org/Graphics/SVG/1.1/DTD/svg11.dtd">
<svg version="1.1"
	 id="svg2" inkscape:export-ydpi="36.046921" sodipodi:docbase="/home/hyoga/Desktop" xmlns:svg="http://www.w3.org/2000/svg" inkscape:version="0.46" sodipodi:version="0.32" xmlns:sodipodi="http://sodipodi.sourceforge.net/DTD/sodipodi-0.dtd" xmlns:dc="http://purl.org/dc/elements/1.1/" xmlns:cc="http://creativecommons.org/ns#" sodipodi:docname="tux-vache006-nologo.svg" xmlns:rdf="http://www.w3.org/1999/02/22-rdf-syntax-ns#" xmlns:inkscape="http://www.inkscape.org/namespaces/inkscape" inkscape:export-xdpi="36.046921" inkscape:export-filename="/mnt/data/content/img/svg/tux/tux-vache008.png" inkscape:output_extension="org.inkscape.output.svg.inkscape"
	 xmlns="http://www.w3.org/2000/svg" xmlns:xlink="http://www.w3.org/1999/xlink" x="0px" y="0px" width="1255.467px"
	 height="1028.867px" viewBox="0 0 1255.467 1028.867" enable-background="new 0 0 1255.467 1028.867" xml:space="preserve">
<filter  id="filter6104" inkscape:collect="always">
	<feGaussianBlur  id="feGaussianBlur6106" stdDeviation="3.061856" inkscape:collect="always"></feGaussianBlur>
</filter>
<filter  id="filter6064" inkscape:collect="always">
	<feGaussianBlur  id="feGaussianBlur6066" stdDeviation="4.3756253" inkscape:collect="always"></feGaussianBlur>
</filter>
<filter  id="filter6040" inkscape:collect="always">
	<feGaussianBlur  id="feGaussianBlur6042" stdDeviation="5.9561919" inkscape:collect="always"></feGaussianBlur>
</filter>
<filter  id="filter5908" inkscape:collect="always">
	<feGaussianBlur  id="feGaussianBlur5910" stdDeviation="7.3424694" inkscape:collect="always"></feGaussianBlur>
</filter>
<filter  height="1.0982804" width="1.2111444" id="filter5804" y="-0.049140181" x="-0.1055722" inkscape:collect="always">
	<feGaussianBlur  id="feGaussianBlur5806" stdDeviation="5.6108685" inkscape:collect="always"></feGaussianBlur>
</filter>
<filter  id="filter5704" inkscape:collect="always">
	<feGaussianBlur  id="feGaussianBlur5706" stdDeviation="4.087089" inkscape:collect="always"></feGaussianBlur>
</filter>
<filter  height="1.5628887" width="1.215229" id="filter5604" y="-0.28144437" x="-0.10761449" inkscape:collect="always">
	<feGaussianBlur  id="feGaussianBlur5606" stdDeviation="12.949534" inkscape:collect="always"></feGaussianBlur>
</filter>
<filter  height="1.5579673" width="1.1810743" id="filter5504" y="-0.27898365" x="-0.090537146" inkscape:collect="always">
	<feGaussianBlur  id="feGaussianBlur5506" stdDeviation="11.602992" inkscape:collect="always"></feGaussianBlur>
</filter>
<filter  height="1.3744551" width="1.2115763" id="filter5280" y="-0.18722756" x="-0.10578822" inkscape:collect="always">
	<feGaussianBlur  id="feGaussianBlur5282" stdDeviation="6.1824094" inkscape:collect="always"></feGaussianBlur>
</filter>
<filter  height="1.3590518" width="1.1978182" id="filter5172" y="-0.17952588" x="-0.098909095" inkscape:collect="always">
	<feGaussianBlur  id="feGaussianBlur5174" stdDeviation="5.2746081" inkscape:collect="always"></feGaussianBlur>
</filter>
<filter  height="1.6768701" width="1.5480638" id="filter5054" y="-0.33843505" x="-0.27403188" inkscape:collect="always">
	<feGaussianBlur  id="feGaussianBlur5056" stdDeviation="16.043933" inkscape:collect="always"></feGaussianBlur>
</filter>
<filter  height="1.3758222" width="1.1762891" id="filter3736" y="-0.18791109" x="-0.088144548" inkscape:collect="always">
	<feGaussianBlur  id="feGaussianBlur3738" stdDeviation="12.536909" inkscape:collect="always"></feGaussianBlur>
</filter>
<filter  id="filter12481" inkscape:collect="always">
	<feGaussianBlur  id="feGaussianBlur12483" stdDeviation="3.7510062" inkscape:collect="always"></feGaussianBlur>
</filter>
<filter  height="1.3013242" width="1.2557091" id="filter12365" y="-0.15066209" x="-0.12785454" inkscape:collect="always">
	<feGaussianBlur  id="feGaussianBlur12367" stdDeviation="22.311477" inkscape:collect="always"></feGaussianBlur>
</filter>
<filter  height="1.4625267" width="1.4106247" id="filter12345" y="-0.23126335" x="-0.20531239" inkscape:collect="always">
	<feGaussianBlur  id="feGaussianBlur12347" stdDeviation="17.214619" inkscape:collect="always"></feGaussianBlur>
</filter>
<filter  height="1.3315908" width="1.3375328" id="filter12057" y="-0.1657954" x="-0.16876636" inkscape:collect="always">
	<feGaussianBlur  id="feGaussianBlur12059" stdDeviation="14.277338" inkscape:collect="always"></feGaussianBlur>
</filter>
<defs>
	
	
		<inkscape:perspective  id="perspective107" inkscape:persp3d-origin="512 : 341.33333 : 1" inkscape:vp_z="1024 : 512 : 1" inkscape:vp_y="0 : 1000 : 0" inkscape:vp_x="0 : 512 : 1" sodipodi:type="inkscape:persp3d">
		</inkscape:perspective>
	
		<inkscape:perspective  id="perspective9" inkscape:persp3d-origin="372.04724 : 350.78739 : 1" inkscape:vp_z="744.09448 : 526.18109 : 1" inkscape:vp_y="0 : 1000 : 0" inkscape:vp_x="0 : 526.18109 : 1" sodipodi:type="inkscape:persp3d">
		</inkscape:perspective>
</defs>
<sodipodi:namedview  height="1024px" width="1024px" id="base" borderlayer="true" showborder="false" showgrid="false" inkscape:window-y="0" inkscape:window-x="1280" inkscape:window-height="1021" inkscape:window-width="1672" inkscape:guide-bbox="true" showguides="true" inkscape:current-layer="layer1" inkscape:document-units="px" inkscape:cy="465.8673" inkscape:cx="850.48861" inkscape:zoom="0.29645392" inkscape:pageshadow="2" inkscape:pageopacity="0.0" borderopacity="1.0" bordercolor="#666666" pagecolor="#ffffff">
	</sodipodi:namedview>
<g id="layer13" transform="translate(92.818094,87.802851)" inkscape:label="oreilles" inkscape:groupmode="layer">
	
		<path id="path4665" inkscape:export-ydpi="12" inkscape:export-xdpi="12" inkscape:export-filename="/mnt/data/content/img/svg/tux/path4622.png" sodipodi:nodetypes="cccc" stroke="#000000" stroke-width="1.0575" d="
		M617.084,54.522c74.472-50.778,218.77-79.63,315.691-16.361c-12.884,74.177-131.658,123.194-208.936,140.434
		C660.287,169.93,586.84,112.118,617.084,54.522z"/>
	
		<path id="path4667" inkscape:export-ydpi="12" inkscape:export-xdpi="12" inkscape:export-filename="/mnt/data/content/img/svg/tux/path4622.png" sodipodi:nodetypes="cccc" stroke="#000000" stroke-width="1.0575" d="
		M270.891,65.43c28.312,55.584-38.775,120.308-99.13,128.163C102.256,175.542-10.238,150.355-24.974,47.705
		C74.671-16.769,181.576,12.573,270.891,65.43z"/>
	
		<g id="path4669" inkscape:export-ydpi="12" inkscape:export-xdpi="12" inkscape:export-filename="/mnt/data/content/img/svg/tux/path4622.png" sodipodi:nodetypes="cccc" opacity="0.7917" filter="url(#filter5504)" enable-background="new    ">
		<path fill="#FFFFFF" d="M620.134,61.34c41.79-40.316,200.403-75.064,298.916-24.542c-107.373,6.893-190.59,18.3-247.062,73.625
			C621.615,98.94,599.696,109.837,620.134,61.34z"/>
		<path fill="none" stroke="#000000" stroke-width="1.0575" d="M620.134,61.34c41.79-40.316,200.403-75.064,298.916-24.542
			c-107.373,6.893-190.59,18.3-247.062,73.625C621.615,98.94,599.696,109.837,620.134,61.34z"/>
	</g>
	
		<g id="path4679" inkscape:export-ydpi="12" inkscape:export-xdpi="12" inkscape:export-filename="/mnt/data/content/img/svg/tux/path4622.png" sodipodi:nodetypes="cccc" opacity="0.7276" filter="url(#filter5604)" enable-background="new    ">
		<path fill="#FFFFFF" d="M269.366,79.064C175.43,7.376,53.322,8.493-9.723,50.432C98.041,71.92,180.453,80.033,225.139,130.875
			C272.875,118.999,290.098,123.484,269.366,79.064z"/>
		<path fill="none" stroke="#000000" stroke-width="1.0575" d="M269.366,79.064C175.43,7.376,53.322,8.493-9.723,50.432
			C98.041,71.92,180.453,80.033,225.139,130.875C272.875,118.999,290.098,123.484,269.366,79.064z"/>
	</g>
</g>
<g id="layer1" transform="translate(92.818094,87.802851)" inkscape:label="Capa 1" inkscape:groupmode="layer">
	
		<g id="g3844" transform="matrix(1.1184123,0,0,0.9998715,-118.00385,5.6834813e-2)" inkscape:export-ydpi="12" inkscape:export-xdpi="12" inkscape:export-filename="/mnt/data/content/img/svg/tux/path4622.png">
		<path id="path3161" sodipodi:nodetypes="ccccccccsccsccc" stroke="#000000" stroke-width="2.3" d="M175.635,573.604
			c47,149.41,137.643,226.158,171.074,342.835c82.538,3.432,259.265,2.657,352.706,3.532
			c80.959-186.727,135.738-208.736,154.152-347.537c0,0,30.952,0.137,102.381,51.565c86.373,82.302,87.737-257.702-163.136-314.705
			c-42.81-12.845-9.072-147.761-9.072-147.761s-37.49-24.119-85.504-71.832c-48.014-47.713-114.014-77.131-186.807-77.131
			c-73.337,0-139.766,29.92-187.861,78.273c-48.094,48.353-89.997,90.364-89.997,90.364s43.395,126.619-0.001,136.356
			c-45.31,10.166-79.391,26.113-123.959,66.502C4.331,485.269,2.761,664.282,66.785,623.646
			C138.214,576.499,175.635,573.604,175.635,573.604z"/>
		
			<g id="path3358" sodipodi:cx="1510.9303" sodipodi:cy="175.48776" sodipodi:rx="209.40807" sodipodi:ry="177.70743" sodipodi:start="0" sodipodi:end="6.2831679" sodipodi:open="true" sodipodi:type="arc" opacity="0.5769" filter="url(#filter12365)" enable-background="new    ">
			<path fill="#FFFFFF" d="M738.506,204.415c-0.001,99.168-101.847,179.558-227.48,179.558
				C385.394,383.972,283.55,303.58,283.55,204.412c0.001-99.168,101.847-179.558,227.481-179.557
				c125.631,0,227.474,80.391,227.475,179.557"/>
		</g>
		<rect id="rect3326" x="304.693" y="17.356" fill="none" width="412.685" height="374.117"/>
		
			<linearGradient id="path3170_1_" gradientUnits="userSpaceOnUse" x1="519.5304" y1="458.7556" x2="519.5304" y2="316.0508" gradientTransform="matrix(1.1184 0 0 -0.9999 -51.6491 916.0186)">
			<stop  offset="0" style="stop-color:#FFFFFF"/>
			<stop  offset="1" style="stop-color:#BEBEBE"/>
		</linearGradient>
		<path id="path3170" sodipodi:nodetypes="czzzsz" fill="url(#path3170_1_)" d="M793.966,671.611
			c-6.809,84.558-41.374,121.32-79.651,159.71c-37.449,37.56-339.137,22.425-375.278-6.747
			c-36.141-29.172-64.364-43.719-73.918-154.758C255.708,560.45,368.4,415.952,519.022,415.952
			C668.528,415.952,800.939,585.022,793.966,671.611z"/>
		<g id="path3760" sodipodi:nodetypes="cccccc" filter="url(#filter5804)">
			<path opacity="0.3857" fill="#FFFFFF" d="M308.792,556.737c34.361,102.951,30.503,132.646,13.533,222.722
				c-9.67,17.016-13.217,8.677-23.796,5.251c-22.235-25.232-63.439-71.55-94.566-163.689c16.899,29.644,22.468,50.555,50.158,53.96
				C278.882,628.498,286.557,605.696,308.792,556.737z"/>
		</g>
		
			<g id="path3225" sodipodi:cx="615.17139" sodipodi:cy="284.44446" sodipodi:rx="109.92091" sodipodi:ry="101.24294" sodipodi:start="0" sodipodi:end="6.2831679" sodipodi:open="true" sodipodi:type="arc" filter="url(#filter5908)">
			
				<linearGradient id="SVGID_1_" gradientUnits="userSpaceOnUse" x1="607.235" y1="618.5809" x2="607.235" y2="768.1316" gradientTransform="matrix(1.1671 0 0 -1.0186 -100.7107 918.218)">
				<stop  offset="0" style="stop-color:#000000"/>
				<stop  offset="1" style="stop-color:#FFFFFF"/>
			</linearGradient>
			<path fill="url(#SVGID_1_)" d="M722.696,276.586c-0.001,56.96-51.357,103.135-114.707,103.134
				c-63.35,0-114.706-46.176-114.705-103.136c0.001-56.959,51.356-103.134,114.706-103.134c63.35,0,114.705,46.175,114.706,103.134"
				/>
			<path fill="none" stroke="#000000" stroke-width="8.729" d="M722.696,276.586c-0.001,56.96-51.357,103.135-114.707,103.134
				c-63.35,0-114.706-46.176-114.705-103.136c0.001-56.959,51.356-103.134,114.706-103.134c63.35,0,114.705,46.175,114.706,103.134"
				/>
		</g>
		<g id="path3762" sodipodi:nodetypes="cccccc" filter="url(#filter5704)">
			<path opacity="0.3857" fill="#FFFFFF" d="M729.39,529.271c16.36,119.131-45.725,166.416-38.645,260.219
				c13.716,28.25,35.689,23.743,51.654,14.332c29.929-54.831,93.923-142.327,93.518-207.578
				c-15.831,30.943-17.19,50.774-47.754,66.952C776.754,630.534,760.515,597.535,729.39,529.271z"/>
		</g>
		
			<radialGradient id="path3193_1_" cx="1150.8297" cy="140.8523" r="170.6779" gradientTransform="matrix(-1.8651 -0.6512 -0.4099 1.469 2952.9067 1367.2111)" gradientUnits="userSpaceOnUse">
			<stop  offset="0" style="stop-color:#DEAF00"/>
			<stop  offset="1" style="stop-color:#DE5D01"/>
		</radialGradient>
		<path id="path3193" sodipodi:nodetypes="cccssc" fill="url(#path3193_1_)" d="M883.235,903.473
			c0,16.901-4.779,23.005-13.419,37.655H555.3c-8.641-14.65-13.42-20.755-13.42-37.655c0-67.602,76.463-122.467,170.677-122.467
			c94.213,0,170.676,54.865,170.677,122.465"/>
		<g id="path3622" sodipodi:nodetypes="cs" filter="url(#filter3736)">
			<path fill="#A0A0A0" d="M181.183,937.27c-8.64-14.65-13.419-20.755-13.419-37.653"/>
		</g>
		
			<radialGradient id="path3200_1_" cx="804.2079" cy="131.9483" r="170.6784" gradientTransform="matrix(-1.7413 -0.4612 -0.206 0.973 1803.6151 1077.3828)" gradientUnits="userSpaceOnUse">
			<stop  offset="0" style="stop-color:#DEAF00"/>
			<stop  offset="1" style="stop-color:#DE5D01"/>
		</radialGradient>
		<path id="path3200" sodipodi:nodetypes="cccssc" fill="url(#path3200_1_)" d="M487.906,903.473c0,16.901-4.78,23.005-13.42,37.655
			H159.97c-8.64-14.65-13.42-20.755-13.42-37.655c0-67.602,76.464-122.467,170.677-122.467c94.213,0,170.677,54.865,170.678,122.465
			"/>
		
			<g id="path3227" sodipodi:cx="617.09979" sodipodi:cy="299.87195" sodipodi:rx="73.528122" sodipodi:ry="115.29321" sodipodi:start="0" sodipodi:end="6.2831679" sodipodi:open="true" sodipodi:type="arc" filter="url(#filter6064)">
			<path d="M721.864,300.868c-0.001,61.724-49.276,111.762-110.061,111.761c-60.784,0-110.059-50.039-110.059-111.763
				c0-61.725,49.276-111.762,110.06-111.761s110.059,50.038,110.059,111.761"/>
		</g>
		
			<g id="path3211" sodipodi:cx="416.54236" sodipodi:cy="286.37289" sodipodi:rx="94.493408" sodipodi:ry="120.52731" sodipodi:start="0" sodipodi:end="6.2831679" sodipodi:open="true" sodipodi:type="arc" filter="url(#filter6040)">
			
				<linearGradient id="SVGID_2_" gradientUnits="userSpaceOnUse" x1="459.0102" y1="632.0162" x2="456.6847" y2="761.2029" gradientTransform="matrix(1.3217 0 0 -1.1343 -196.1946 967.8841)">
				<stop  offset="0" style="stop-color:#000000"/>
				<stop  offset="1" style="stop-color:#FFFFFF"/>
			</linearGradient>
			<path fill="url(#SVGID_2_)" d="M522.424,266.123c-0.001,75.518-49.997,136.737-111.669,136.736s-111.667-61.221-111.667-136.738
				c0.001-75.518,49.997-136.736,111.669-136.736s111.666,61.219,111.667,136.736"/>
			<path fill="none" stroke="#000000" stroke-width="7.7728" d="M522.424,266.123c-0.001,75.518-49.997,136.737-111.669,136.736
				s-111.667-61.221-111.667-136.738c0.001-75.518,49.997-136.736,111.669-136.736s111.666,61.219,111.667,136.736"/>
		</g>
		
			<g id="path3213" sodipodi:cx="430.04144" sodipodi:cy="269.01694" sodipodi:rx="77.137474" sodipodi:ry="97.386063" sodipodi:start="0" sodipodi:end="6.2831679" sodipodi:open="true" sodipodi:type="arc" filter="url(#filter6104)">
			<path d="M508.797,278.659c-0.001,67.46-44.327,122.147-99.006,122.146c-54.68-0.001-99.005-54.688-99.004-122.148
				c0-67.46,44.326-122.146,99.006-122.146c54.678,0.001,99.003,54.687,99.004,122.146"/>
			<path fill="none" stroke="#000000" stroke-width="2.3645" d="M508.797,278.659c-0.001,67.46-44.327,122.147-99.006,122.146
				c-54.68-0.001-99.005-54.688-99.004-122.148c0-67.46,44.326-122.146,99.006-122.146c54.678,0.001,99.003,54.687,99.004,122.146"
				/>
		</g>
		
			<linearGradient id="path3600_1_" gradientUnits="userSpaceOnUse" x1="1278.6467" y1="79.6701" x2="1278.6467" y2="-3.1164" gradientTransform="matrix(1.4912 0 0 -1.479 -1617.4681 914.2793)">
			<stop  offset="0" style="stop-color:#FFFFFF"/>
			<stop  offset="1" style="stop-color:#FFFFFF;stop-opacity:0"/>
		</linearGradient>
		
			<path id="path3600" sodipodi:cx="1304.5875" sodipodi:cy="852.36914" sodipodi:rx="78.101692" sodipodi:ry="46.282486" sodipodi:start="0" sodipodi:end="6.2831679" sodipodi:open="true" sodipodi:type="arc" opacity="0.8" fill="url(#path3600_1_)" enable-background="new    " d="
			M393.401,864.908c-0.001,37.81-46.624,68.458-104.137,68.458c-57.512,0-104.135-30.65-104.134-68.46s46.624-68.46,104.136-68.458
			c57.512,0,104.134,30.65,104.135,68.458"/>
		
			<linearGradient id="path3610_1_" gradientUnits="userSpaceOnUse" x1="1278.6467" y1="79.6706" x2="1278.6467" y2="-3.116" gradientTransform="matrix(1.4912 0 0 -1.479 -1168.1478 914.2793)">
			<stop  offset="0" style="stop-color:#FFFFFF"/>
			<stop  offset="1" style="stop-color:#FFFFFF;stop-opacity:0"/>
		</linearGradient>
		
			<path id="path3610" sodipodi:cx="1304.5875" sodipodi:cy="852.36914" sodipodi:rx="78.101692" sodipodi:ry="46.282486" sodipodi:start="0" sodipodi:end="6.2831679" sodipodi:open="true" sodipodi:type="arc" opacity="0.8" fill="url(#path3610_1_)" enable-background="new    " d="
			M842.722,864.908c-0.001,37.81-46.625,68.458-104.137,68.458s-104.135-30.65-104.134-68.46c0-37.81,46.624-68.46,104.136-68.458
			c57.512,0,104.134,30.65,104.135,68.458"/>
		<g id="path3742" sodipodi:nodetypes="cscc" opacity="0.6474" filter="url(#filter12345)" enable-background="new    ">
			<path fill="#FFFFFF" d="M48.348,526.907c0,0,143.273-134.221,184.331-119.328c39.246,14.236,11.41-71.307,11.41-71.307
				C140.839,336.312,65.717,436.401,48.348,526.907z"/>
		</g>
		<g id="path3752" sodipodi:nodetypes="ccc" filter="url(#filter5280)">
			<path opacity="0.3857" fill="#FFFFFF" d="M39.567,643.697c8.82-17.61,54.529-80.079,145.317-81.243L39.567,643.697z"/>
		</g>
		<g id="path3754" sodipodi:nodetypes="csccc" opacity="0.5833" filter="url(#filter12057)" enable-background="new    ">
			<path fill="#FFFFFF" d="M997.93,535.383c0,0-109.033-141.669-196.829-132.318c-31.451,3.35-21.199-70.981-21.199-70.981
				s52.998,0.378,84.74,17.373C923.779,383.717,979.268,439.288,997.93,535.383z"/>
		</g>
		<g id="path3756" sodipodi:nodetypes="ccc" filter="url(#filter5172)">
			<path opacity="0.3857" fill="#FFFFFF" d="M979.807,638.001c-22.557-43.726-83.939-80.18-131.46-73.777L979.807,638.001z"/>
		</g>
	</g>
	
		<path id="path2480" inkscape:export-ydpi="12" inkscape:export-xdpi="12" inkscape:export-filename="/mnt/data/content/img/svg/tux/path4622.png" sodipodi:nodetypes="csssssss" fill="none" d="
		M271.654,381.747c-38.059,54.057,55.593,79.168,48.803,100.213c-4.206,13.035-9.967,22.354-15.251,34.086
		c-10.907,24.219,94.184,49.713,142.595,51.129c48.412,1.414,171.173-18.785,160.896-47.039
		c-6.126-16.842-13.125-27.334-20.589-42.949c-10.473-21.91,78.525-54.303,37.364-107.029
		C574.944,305.432,309.713,327.69,271.654,381.747z"/>
</g>
<g id="layer6" transform="translate(92.818094,87.802851)" inkscape:label="museau zero" inkscape:groupmode="layer">
	
		<radialGradient id="path3368_1_" cx="857.7131" cy="806.223" r="180.6857" fx="857.7131" fy="806.2229" gradientTransform="matrix(9.939823e-04 -0.7849 -0.7127 -9.025115e-04 1028.2444 1144.9218)" gradientUnits="userSpaceOnUse">
		<stop  offset="0" style="stop-color:#FFFFFF"/>
		<stop  offset="1" style="stop-color:#000000"/>
	</radialGradient>
	
		<radialGradient id="path3368_2_" cx="628.5325" cy="183.0237" r="169.5704" fx="628.5325" fy="183.0239" gradientUnits="userSpaceOnUse">
		<stop  offset="0" style="stop-color:#A3A3A3"/>
		<stop  offset="1" style="stop-color:#A3A3A3;stop-opacity:0"/>
	</radialGradient>
	
		<path id="path3368" inkscape:export-ydpi="12" inkscape:export-xdpi="12" inkscape:export-filename="/mnt/data/content/img/svg/tux/path4622.png" sodipodi:nodetypes="ccccccc" fill="url(#path3368_1_)" stroke="url(#path3368_2_)" stroke-width="1.9035" d="
		M272.934,373.599c-1.433,33.276,2.088,57.994,2.051,80.091c-17.073,19.438-47.488,67.379-30.179,102.26
		c42.051,86.723,373.06,94.52,437.883,8.676c17.744-32.488-7.761-87.297-32.489-109.807c-1.315-28.306,0.528-64.24-1.354-103.449
		C574.804,228.623,352.424,229.438,272.934,373.599z"/>
	
		<linearGradient id="path3828_1_" gradientUnits="userSpaceOnUse" x1="1433.4192" y1="681.8987" x2="1441.173" y2="653.7639" gradientTransform="matrix(1.1184 0 0 -0.9999 -1082.9004 1210.8129)">
		<stop  offset="0" style="stop-color:#FFFFFF"/>
		<stop  offset="1" style="stop-color:#FFFFFF;stop-opacity:0"/>
	</linearGradient>
	
		<path id="path3828" inkscape:export-ydpi="12" inkscape:export-xdpi="12" inkscape:export-filename="/mnt/data/content/img/svg/tux/path4622.png" sodipodi:nodetypes="cccc" fill="url(#path3828_1_)" d="
		M506.983,521.9c0,0,7.457,19.26,8.01,35.557c16.296-4.939,24.857-9.877,24.857-9.877S535.707,521.9,506.983,521.9z"/>
</g>
<g id="layer7" transform="translate(92.818094,87.802851)" inkscape:label="museau centre" inkscape:groupmode="layer">
	
		<g id="path3312" sodipodi:cx="513.05859" sodipodi:cy="451.62436" sodipodi:rx="158.01627" sodipodi:ry="74.21431" sodipodi:start="0" sodipodi:end="6.2784018" sodipodi:open="true" inkscape:export-ydpi="12" sodipodi:type="arc" inkscape:export-xdpi="12" inkscape:export-filename="/mnt/data/content/img/svg/tux/path4622.png" filter="url(#filter12481)">
		
			<radialGradient id="SVGID_3_" cx="642.4163" cy="410.0189" r="123.7474" gradientTransform="matrix(3.3352 0.0551 0.0216 -1.0432 -1686.8792 983.7062)" gradientUnits="userSpaceOnUse">
			<stop  offset="0" style="stop-color:#000000"/>
			<stop  offset="1" style="stop-color:#FFFFFF"/>
		</radialGradient>
		<path fill="url(#SVGID_3_)" d="M654.448,528.997c0.003,44.24-85.003,80.104-189.866,80.105
			c-104.863,0-189.875-35.861-189.878-80.1c-0.004-44.24,85.003-80.104,189.866-80.105c104.509,0,189.373,35.629,189.876,79.717"/>
	</g>
</g>
<g id="layer8" transform="translate(92.818094,87.802851)" inkscape:label="museau jaune" inkscape:groupmode="layer">
	
		<radialGradient id="path3202_1_" cx="884.6506" cy="376.0291" r="90.9119" gradientTransform="matrix(-2.2916 0.0953 0 1.1433 2486.5278 -35.8542)" gradientUnits="userSpaceOnUse">
		<stop  offset="0" style="stop-color:#DEAF00"/>
		<stop  offset="1" style="stop-color:#DE5D01"/>
	</radialGradient>
	
		<path id="path3202" inkscape:export-ydpi="12" inkscape:export-xdpi="12" inkscape:export-filename="/mnt/data/content/img/svg/tux/path4622.png" sodipodi:nodetypes="ccc" fill="url(#path3202_1_)" d="
		M595.963,515.255c1.486-58.301-270.811-68.271-273.449,0.586C323.181,578.284,595.737,579.824,595.963,515.255z"/>
</g>
<g id="layer9" transform="translate(92.818094,87.802851)" inkscape:label="museau reflets" inkscape:groupmode="layer">
	
		<linearGradient id="path3406_1_" gradientUnits="userSpaceOnUse" x1="1481.4758" y1="628.7073" x2="1446.5" y2="572.5989" gradientTransform="matrix(1.1184 0 0 -0.7125 -1132.8936 927.5692)">
		<stop  offset="0" style="stop-color:#FFFFFF"/>
		<stop  offset="1" style="stop-color:#FFFFFF;stop-opacity:0"/>
	</linearGradient>
	
		<path id="path3406" inkscape:export-ydpi="12" inkscape:export-xdpi="12" inkscape:export-filename="/mnt/data/content/img/svg/tux/path4622.png" sodipodi:nodetypes="ccc" opacity="0.8" fill="url(#path3406_1_)" enable-background="new    " d="
		M422.737,479.034c76.001,15.154,108.674,20.318,137.378,57.262C657.931,496.55,478.454,464.142,422.737,479.034z"/>
	
		<path id="path3416" inkscape:export-ydpi="12" inkscape:export-xdpi="12" inkscape:export-filename="/mnt/data/content/img/svg/tux/path4622.png" sodipodi:nodetypes="ccc" fill="#FFFFFF" fill-opacity="0.4286" d="
		M338.649,505.357c1.782,6.906,115.322,51.75,115.322,51.75C377.052,564.941,301.174,524.097,338.649,505.357z"/>
</g>
<g id="layer10" transform="translate(92.818094,87.802851)" inkscape:label="museau narines" inkscape:groupmode="layer">
	
		<radialGradient id="path4146_1_" cx="954.8899" cy="336.9695" r="28.9444" fx="954.8902" fy="336.9694" gradientTransform="matrix(-2.0034 -0.6792 -0.434 1.28 2587.1101 727.033)" gradientUnits="userSpaceOnUse">
		<stop  offset="0" style="stop-color:#895F00"/>
		<stop  offset="1" style="stop-color:#000000"/>
	</radialGradient>
	
		<radialGradient id="path4146_2_" cx="793.1321" cy="324.5013" r="29.4444" fx="793.1323" fy="324.5011" gradientUnits="userSpaceOnUse">
		<stop  offset="0" style="stop-color:#000000;stop-opacity:0"/>
		<stop  offset="0.5" style="stop-color:#000000;stop-opacity:0"/>
		<stop  offset="1" style="stop-color:#000000"/>
	</radialGradient>
	
		<path id="path4146" sodipodi:cx="548.64032" sodipodi:cy="528.39172" sodipodi:rx="33.898888" sodipodi:ry="18.388674" sodipodi:start="0" sodipodi:end="6.2831679" sodipodi:open="true" inkscape:export-ydpi="12" sodipodi:type="arc" inkscape:export-xdpi="12" inkscape:export-filename="/mnt/data/content/img/svg/tux/path4622.png" fill="url(#path4146_1_)" stroke="url(#path4146_2_)" stroke-width="2" d="
		M546.717,520.818c-0.001,10.154-16.975,18.387-37.914,18.387c-20.938,0-37.912-8.232-37.912-18.387s16.975-18.387,37.913-18.387
		C529.742,502.431,546.716,510.663,546.717,520.818"/>
	
		<radialGradient id="path4144_1_" cx="862.3225" cy="352.763" r="27.2571" fx="862.3226" fy="352.7629" gradientTransform="matrix(-1.7975 -0.8523 -0.6124 1.2919 2192.4641 782.4234)" gradientUnits="userSpaceOnUse">
		<stop  offset="0" style="stop-color:#895F00"/>
		<stop  offset="1" style="stop-color:#000000"/>
	</radialGradient>
	
		<radialGradient id="path4144_2_" cx="692.3567" cy="313.1702" r="27.7571" fx="692.3568" fy="313.1701" gradientUnits="userSpaceOnUse">
		<stop  offset="0" style="stop-color:#000000"/>
		<stop  offset="1" style="stop-color:#000000;stop-opacity:0"/>
	</radialGradient>
	
		<path id="path4144" sodipodi:cx="454.87006" sodipodi:cy="526.94537" sodipodi:rx="34.938728" sodipodi:ry="16.542955" sodipodi:start="0" sodipodi:end="6.2831679" sodipodi:open="true" inkscape:export-ydpi="12" sodipodi:type="arc" inkscape:export-xdpi="12" inkscape:export-filename="/mnt/data/content/img/svg/tux/path4622.png" fill="url(#path4144_1_)" stroke="url(#path4144_2_)" stroke-width="2" d="
		M448.749,520.818c0,9.135-17.495,16.541-39.076,16.541s-39.076-7.406-39.075-16.541c0-9.137,17.495-16.541,39.076-16.541
		C431.254,504.277,448.749,511.683,448.749,520.818"/>
</g>
<g id="layer11" transform="translate(7.3809105,-110.51576)" inkscape:label="ombre cornes" inkscape:groupmode="layer">
	
		<g id="path4848" sodipodi:cx="694.88031" sodipodi:cy="296.40393" sodipodi:rx="73.367218" sodipodi:ry="50.598083" sodipodi:type="arc" filter="url(#filter5054)">
		<path fill="#180019" d="M752.779,329.625c-16.409,16.333-55.256,15.077-86.767-2.805c-31.511-17.881-43.753-45.618-27.345-61.95
			c16.409-16.333,55.256-15.077,86.767,2.805C756.945,285.556,769.187,313.292,752.779,329.625z"/>
	</g>
	
		<g id="path5058" sodipodi:cx="694.88031" sodipodi:cy="296.40393" sodipodi:rx="73.367218" sodipodi:ry="50.598083" sodipodi:type="arc" filter="url(#filter5054)">
		<path fill="#180019" d="M439.088,264.028c4.111,17.636-20.186,43.029-54.267,56.718c-34.082,13.688-65.043,10.489-69.154-7.147
			c-4.11-17.636,20.186-43.029,54.267-56.718C404.016,243.193,434.977,246.393,439.088,264.028z"/>
	</g>
</g>
<g id="layer14" transform="translate(92.818094,87.802851)" inkscape:label="cornes" inkscape:groupmode="layer">
	
		<radialGradient id="path4692_1_" cx="980.4172" cy="545.0081" r="81.6348" gradientTransform="matrix(-1.6611 2.3642 0.9122 0.5401 1827.3719 -2676.0852)" gradientUnits="userSpaceOnUse">
		<stop  offset="0" style="stop-color:#FFFFFF"/>
		<stop  offset="0.7727" style="stop-color:#E9E3CB"/>
		<stop  offset="1" style="stop-color:#373017"/>
	</radialGradient>
	
		<path id="path4692" inkscape:export-ydpi="12" inkscape:export-xdpi="12" inkscape:export-filename="/mnt/data/content/img/svg/tux/path4622.png" sodipodi:nodetypes="cccc" fill="url(#path4692_1_)" stroke="#444444" stroke-width="2" d="
		M562.827,63.349c38.136-45.59,49.617,23.646,199.966-135.374c69.397-75.499-6.241,160.894-112.139,199.89
		C616.99,138.406,546.532,80.143,562.827,63.349z"/>
	
		<radialGradient id="path4823_1_" cx="863.6077" cy="1056.3381" r="81.6348" gradientTransform="matrix(1.6611 2.3642 -0.9122 0.5401 -265.64 -2688.5754)" gradientUnits="userSpaceOnUse">
		<stop  offset="0" style="stop-color:#FFFFFF"/>
		<stop  offset="0.7727" style="stop-color:#E9E3CB"/>
		<stop  offset="1" style="stop-color:#373017"/>
	</radialGradient>
	
		<path id="path4823" inkscape:export-ydpi="12" inkscape:export-xdpi="12" inkscape:export-filename="/mnt/data/content/img/svg/tux/path4622.png" sodipodi:nodetypes="cccc" fill="url(#path4823_1_)" stroke="#444444" stroke-width="2" d="
		M338.438,50.86C300.303,17.076,298.94,64.386,150.279-69.335c-69.398-75.498-5.565,145.715,100.332,184.71
		C284.276,125.916,354.733,67.654,338.438,50.86z"/>
</g>
<g id="layer12" transform="translate(92.818094,87.802851)" inkscape:label="yeux" inkscape:groupmode="layer">
	
		<radialGradient id="path3229_1_" cx="620.7161" cy="598.386" r="77.1372" gradientTransform="matrix(1.4784 0 0 -1.1342 -350.9131 960.9238)" gradientUnits="userSpaceOnUse">
		<stop  offset="0" style="stop-color:#D2D2D2"/>
		<stop  offset="0.88" style="stop-color:#D2D2D2"/>
		<stop  offset="1" style="stop-color:#808080"/>
	</radialGradient>
	
		<path id="path3229" sodipodi:cx="615.17139" sodipodi:cy="306.62146" sodipodi:rx="77.137474" sodipodi:ry="79.06591" sodipodi:start="0" sodipodi:end="6.2831679" sodipodi:open="true" inkscape:export-ydpi="12" sodipodi:type="arc" inkscape:export-xdpi="12" inkscape:export-filename="/mnt/data/content/img/svg/tux/path4622.png" fill="url(#path3229_1_)" d="
		M680.797,282.216c0,48.32-51.059,87.492-114.041,87.491c-62.983,0-114.041-39.172-114.04-87.492s51.059-87.491,114.042-87.491
		c62.981,0,114.039,39.171,114.039,87.491"/>
	
		<radialGradient id="path3215_1_" cx="417.2639" cy="614.0306" r="77.1377" gradientTransform="matrix(1.3663 0 0 -1.5465 -229.0745 1227.7097)" gradientUnits="userSpaceOnUse">
		<stop  offset="0" style="stop-color:#D2D2D2"/>
		<stop  offset="0.88" style="stop-color:#D2D2D2"/>
		<stop  offset="1" style="stop-color:#808080"/>
	</radialGradient>
	
		<path id="path3215" sodipodi:cx="430.04144" sodipodi:cy="269.01694" sodipodi:rx="77.137474" sodipodi:ry="97.386063" sodipodi:start="0" sodipodi:end="6.2831679" sodipodi:open="true" inkscape:export-ydpi="12" sodipodi:type="arc" inkscape:export-xdpi="12" inkscape:export-filename="/mnt/data/content/img/svg/tux/path4622.png" fill="url(#path3215_1_)" d="
		M446.441,278.126c-0.001,65.883-47.188,119.291-105.396,119.29c-58.208,0-105.396-53.409-105.395-119.292
		s47.188-119.291,105.396-119.29c58.207,0,105.394,53.408,105.395,119.29"/>
	
		<path id="path3231" sodipodi:cx="482.10922" sodipodi:cy="296.01508" sodipodi:rx="26.998117" sodipodi:ry="39.532955" sodipodi:start="0" sodipodi:end="6.2831679" sodipodi:open="true" inkscape:export-ydpi="12" sodipodi:type="arc" inkscape:export-xdpi="12" inkscape:export-filename="/mnt/data/content/img/svg/tux/path4622.png" d="
		M656.343,285.196c0,21.831-13.519,39.528-30.195,39.527c-16.676,0-30.194-17.698-30.194-39.528s13.519-39.527,30.195-39.527
		C642.824,245.667,656.343,263.365,656.343,285.196"/>
	
		<path id="path3217" sodipodi:cx="482.10922" sodipodi:cy="296.01508" sodipodi:rx="26.998117" sodipodi:ry="39.532955" sodipodi:start="0" sodipodi:end="6.2831679" sodipodi:open="true" inkscape:export-ydpi="12" sodipodi:type="arc" inkscape:export-xdpi="12" inkscape:export-filename="/mnt/data/content/img/svg/tux/path4622.png" stroke="#000000" stroke-width="2.3" d="
		M430.718,279.49c0,21.831-13.519,39.527-30.195,39.527c-16.676,0-30.195-17.698-30.194-39.528
		c0-21.831,13.519-39.528,30.195-39.527C417.199,239.961,430.718,257.659,430.718,279.49"/>
	
		<linearGradient id="path3328_1_" gradientUnits="userSpaceOnUse" x1="1368.4485" y1="729.3069" x2="1405.9454" y2="669.5253" gradientTransform="matrix(1.1184 0 0 -0.9999 -1177.9297 948.6547)">
		<stop  offset="0" style="stop-color:#FFFFFF"/>
		<stop  offset="1" style="stop-color:#FFFFFF;stop-opacity:0"/>
	</linearGradient>
	
		<path id="path3328" inkscape:export-ydpi="12" inkscape:export-xdpi="12" inkscape:export-filename="/mnt/data/content/img/svg/tux/path4622.png" sodipodi:nodetypes="csscsc" opacity="0.8" fill="url(#path3328_1_)" enable-background="new    " d="
		M270.551,204.306c0,0,30.195-50.133,88.429-32.779c58.232,17.354,69.017,46.276,84.114,115.691s-60.39,7.713-60.39,7.713
		s-8.628-59.774-47.45-77.128C296.433,200.45,270.551,206.235,270.551,204.306z"/>
	
		<radialGradient id="path3402_1_" cx="2053.7874" cy="895.8157" r="89.6443" gradientTransform="matrix(-0.8408 -0.9306 -0.402 0.2479 2376.5388 2024.8154)" gradientUnits="userSpaceOnUse">
		<stop  offset="0" style="stop-color:#FFFFFF"/>
		<stop  offset="1" style="stop-color:#FFFFFF;stop-opacity:0"/>
	</radialGradient>
	
		<path id="path3402" inkscape:export-ydpi="12" inkscape:export-xdpi="12" inkscape:export-filename="/mnt/data/content/img/svg/tux/path4622.png" sodipodi:nodetypes="cscsc" opacity="0.8" fill="url(#path3402_1_)" enable-background="new    " d="
		M228.659,243.978c0,0,9.324,67.822,53.058,105.127c43.734,37.306,79.631,45.478,114.229,50.059
		c-27.242,10.293-99.336-5.715-132.289-38.49C230.702,327.9,226.512,245.303,228.659,243.978z"/>
	
		<linearGradient id="path3374_1_" gradientUnits="userSpaceOnUse" x1="1572.8538" y1="722.8206" x2="1604.207" y2="670.681" gradientTransform="matrix(1.1184 0 0 -0.9999 -1162.4395 935.3344)">
		<stop  offset="0" style="stop-color:#FFFFFF"/>
		<stop  offset="1" style="stop-color:#FFFFFF;stop-opacity:0"/>
	</linearGradient>
	
		<path id="path3374" inkscape:export-ydpi="12" inkscape:export-xdpi="12" inkscape:export-filename="/mnt/data/content/img/svg/tux/path4622.png" sodipodi:nodetypes="csccc" opacity="0.8" fill="url(#path3374_1_)" enable-background="new    " d="
		M551.322,204.483c0,0,62.547-9.641,97.056,28.923c34.508,38.563,23.725,52.061,23.725,52.061l-47.449,1.928
		C624.653,287.395,594.457,225.693,551.322,204.483z"/>
	
		<radialGradient id="path3384_1_" cx="2144.0618" cy="244.2318" r="89.6403" gradientTransform="matrix(-1.1184 0 0 0.3609 2966.2261 254.0518)" gradientUnits="userSpaceOnUse">
		<stop  offset="0" style="stop-color:#FFFFFF"/>
		<stop  offset="1" style="stop-color:#FFFFFF;stop-opacity:0"/>
	</radialGradient>
	
		<path id="path3384" inkscape:export-ydpi="12" inkscape:export-xdpi="12" inkscape:export-filename="/mnt/data/content/img/svg/tux/path4622.png" sodipodi:nodetypes="cscsc" opacity="0.8" fill="url(#path3384_1_)" enable-background="new    " d="
		M468.588,329.676c0,0,56.783,29.958,106.39,24.173c49.606-5.784,72.997-22.227,92.997-39.791
		c-5.02,21.072-51.686,54.306-92.664,56.233C534.331,372.219,468.588,331.603,468.588,329.676z"/>
	
		<linearGradient id="path4616_1_" gradientUnits="userSpaceOnUse" x1="1433.4192" y1="681.8997" x2="1441.1732" y2="653.7642" gradientTransform="matrix(1.1184 0 0 -0.9999 -1192.7061 928.5824)">
		<stop  offset="0" style="stop-color:#FFFFFF"/>
		<stop  offset="1" style="stop-color:#FFFFFF;stop-opacity:0"/>
	</linearGradient>
	
		<path id="path4616" inkscape:export-ydpi="12" inkscape:export-xdpi="12" inkscape:export-filename="/mnt/data/content/img/svg/tux/path4622.png" sodipodi:nodetypes="cccc" fill="url(#path4616_1_)" d="
		M397.177,239.668c0,0,7.457,19.26,8.01,35.557c16.296-4.938,24.857-9.877,24.857-9.877S425.902,239.668,397.177,239.668z"/>
	
		<linearGradient id="path4618_1_" gradientUnits="userSpaceOnUse" x1="1403.5823" y1="647.8177" x2="1421.3632" y2="614.4786" gradientTransform="matrix(1.1184 0 0 -0.9999 -1190.8916 925.3519)">
		<stop  offset="0" style="stop-color:#3C3C3C"/>
		<stop  offset="1" style="stop-color:#3C3C3C;stop-opacity:0"/>
	</linearGradient>
	
		<path id="path4618" inkscape:export-ydpi="12" inkscape:export-xdpi="12" inkscape:export-filename="/mnt/data/content/img/svg/tux/path4622.png" sodipodi:nodetypes="cscssc" fill="url(#path4618_1_)" d="
		M377.177,254.71c0,0-2.762,21.482,7.457,36.051c10.22,14.568,21.82,19.26,30.658,20.988c-2.762,2.223-15.19,8.148-26.791-0.247
		c-11.601-8.396-17.4-16.544-17.4-27.656C371.101,272.736,373.311,258.908,377.177,254.71z"/>
	
		<linearGradient id="path4620_1_" gradientUnits="userSpaceOnUse" x1="1431.6965" y1="684.0384" x2="1441.9562" y2="653.3976" gradientTransform="matrix(1.1184 0 0 -0.9999 -968.6689 937.2269)">
		<stop  offset="0" style="stop-color:#FFFFFF"/>
		<stop  offset="1" style="stop-color:#FFFFFF;stop-opacity:0"/>
	</linearGradient>
	
		<path id="path4620" inkscape:export-ydpi="12" inkscape:export-xdpi="12" inkscape:export-filename="/mnt/data/content/img/svg/tux/path4622.png" fill="url(#path4620_1_)" d="
		M621.122,248.062c-0.885,3.366,3.386,6.836,3.519,10.493c2.554,8.266,3.87,16.802,4.939,25.284
		c8.137-3.267,18.332-5.065,24.465-10.874C651.181,259.443,637.102,247.418,621.122,248.062z"/>
	
		<linearGradient id="path4622_1_" gradientUnits="userSpaceOnUse" x1="1403.5803" y1="647.8167" x2="1421.3612" y2="614.4777" gradientTransform="matrix(1.1184 0 0 -0.9999 -961.4639 931.1371)">
		<stop  offset="0" style="stop-color:#3C3C3C"/>
		<stop  offset="1" style="stop-color:#3C3C3C;stop-opacity:0"/>
	</linearGradient>
	
		<path id="path4622" inkscape:export-ydpi="12" inkscape:export-xdpi="12" sodipodi:nodetypes="cscssc" fill="url(#path4622_1_)" d="
		M606.603,260.494c0,0-2.763,21.482,7.457,36.051s21.82,19.26,30.658,20.989c-2.762,2.222-15.19,8.148-26.791-0.247
		s-17.4-16.544-17.4-27.656C600.527,278.52,602.736,264.692,606.603,260.494z"/>
</g>
<g id="layer5" transform="translate(-347.30572,-412.51251)" inkscape:label="ventre" inkscape:groupmode="layer">
	
		<path id="path4302" sodipodi:cx="921.72839" sodipodi:cy="991.94025" sodipodi:rx="441.04666" sodipodi:ry="218.41505" sodipodi:type="arc" fill="none" d="
		M415.728,1051.104c0,114.633,191.431,207.561,427.574,207.561c236.143,0,427.573-92.928,427.573-207.561
		s-191.431-207.561-427.573-207.561C607.159,843.543,415.728,936.471,415.728,1051.104z"/>
</g>
</svg>
